<?xml version="1.0" standalone="no"?>
<!DOCTYPE svg PUBLIC "-//W3C//DTD SVG 20010904//EN"
 "http://www.w3.org/TR/2001/REC-SVG-20010904/DTD/svg10.dtd">
<svg version="1.0" xmlns="http://www.w3.org/2000/svg"
 width="260.000000pt" height="260.000000pt" viewBox="0 0 260.000000 260.000000"
 preserveAspectRatio="xMidYMid meet">
<metadata>
Created by potrace 1.14, written by Peter Selinger 2001-2017
</metadata>
<g transform="translate(0.000000,260.000000) scale(0.100000,-0.100000)"
fill="#000000" stroke="none">
<path d="M1232 2266 c-26 -58 -146 -186 -333 -356 -142 -129 -287 -274 -337
-339 -171 -217 -201 -418 -87 -573 121 -165 364 -218 561 -121 30 14 74 46
100 70 28 27 44 37 41 26 -3 -10 -8 -36 -12 -58 -14 -78 -16 -91 -35 -166 -38
-150 -98 -273 -169 -347 -44 -46 -143 -98 -163 -86 -8 4 -10 3 -5 -2 9 -10
897 -13 897 -3 0 3 -6 6 -13 6 -33 0 -111 49 -152 96 -57 65 -97 142 -134 255
-25 76 -71 279 -71 312 0 5 17 -7 37 -26 114 -111 288 -153 446 -109 56 16
137 64 182 110 94 94 127 202 99 325 -41 188 -146 324 -489 635 -143 129 -250
241 -302 313 -25 34 -46 62 -47 62 -2 0 -8 -11 -14 -24z"/>
</g>
</svg>
